<svg width="32" height="32" viewBox="0 0 32 32" fill="none" xmlns="http://www.w3.org/2000/svg">
<path d="M10.2021 2.098C8.71212 2.168 7.69512 2.406 6.80612 2.755C5.88612 3.114 5.10612 3.595 4.32912 4.374C3.55312 5.153 3.07512 5.934 2.71912 6.855C2.37412 7.746 2.14112 8.764 2.07512 10.255C2.00912 11.745 1.99512 12.225 2.00212 16.026C2.00912 19.827 2.02612 20.304 2.09812 21.798C2.16912 23.287 2.40612 24.304 2.75512 25.194C3.11412 26.114 3.59512 26.894 4.37412 27.671C5.15312 28.447 5.93312 28.924 6.85712 29.281C7.74712 29.625 8.76612 29.86 10.2561 29.925C11.7461 29.99 12.2261 30.005 16.0271 29.998C19.8281 29.991 20.3061 29.974 21.8001 29.903C23.2941 29.832 24.3051 29.594 25.1951 29.246C26.1151 28.886 26.8961 28.406 27.6721 27.626C28.4481 26.846 28.9261 26.065 29.2811 25.143C29.6261 24.253 29.8601 23.234 29.9251 21.745C29.9901 20.251 30.0061 19.774 29.9981 15.972C29.9901 12.17 29.9741 11.694 29.9031 10.201C29.8321 8.708 29.5951 7.694 29.2461 6.804C28.8861 5.884 28.4061 5.104 27.6271 4.327C26.8481 3.55 26.0661 3.073 25.1441 2.718C24.2531 2.373 23.2351 2.138 21.7451 2.074C20.2551 2.01 19.7751 1.993 15.9731 2C12.1711 2.007 11.6951 2.024 10.2021 2.096M10.3661 27.405C9.00112 27.346 8.26012 27.119 7.76612 26.929C7.11212 26.677 6.64612 26.372 6.15412 25.885C5.66212 25.398 5.35912 24.93 5.10412 24.277C4.91212 23.783 4.68112 23.043 4.61712 21.678C4.54812 20.203 4.53312 19.76 4.52512 16.022C4.51712 12.284 4.53112 11.842 4.59612 10.366C4.65412 9.002 4.88212 8.26 5.07212 7.766C5.32412 7.111 5.62812 6.646 6.11612 6.154C6.60412 5.662 7.07112 5.359 7.72412 5.104C8.21712 4.911 8.95812 4.682 10.3221 4.617C11.7981 4.547 12.2411 4.533 15.9781 4.525C19.7151 4.517 20.1591 4.531 21.6361 4.596C23.0001 4.655 23.7421 4.881 24.2351 5.072C24.8891 5.324 25.3551 5.627 25.8471 6.116C26.3391 6.605 26.6421 7.07 26.8981 7.725C27.0911 8.217 27.3201 8.957 27.3841 10.322C27.4541 11.798 27.4701 12.241 27.4771 15.978C27.4841 19.715 27.4711 20.159 27.4061 21.634C27.3461 22.999 27.1201 23.74 26.9301 24.235C26.6781 24.889 26.3741 25.355 25.8851 25.847C25.3961 26.339 24.9301 26.642 24.2771 26.897C23.7841 27.089 23.0431 27.319 21.6801 27.384C20.2041 27.453 19.7611 27.468 16.0231 27.476C12.2851 27.484 11.8421 27.469 10.3661 27.405ZM21.7791 8.517C21.7811 9.445 22.5341 10.196 23.4621 10.194C24.3901 10.192 25.1411 9.439 25.1391 8.511C25.1371 7.583 24.3841 6.832 23.4561 6.834C22.5281 6.836 21.7781 7.589 21.7791 8.517ZM8.81212 16.013C8.82012 19.983 12.0441 23.195 16.0141 23.187C19.9841 23.179 23.1971 19.955 23.1901 15.985C23.1821 12.015 19.9571 8.802 15.9871 8.81C12.0171 8.818 8.80412 12.043 8.81212 16.013ZM11.3351 16.008C11.3301 13.431 13.4151 11.337 15.9931 11.332C18.5701 11.327 20.6641 13.412 20.6691 15.99C20.6741 18.567 18.5891 20.661 16.0111 20.666C13.4341 20.671 11.3401 18.587 11.3351 16.01" fill="white"/>
</svg>
