<svg width="42" height="42" viewBox="0 0 42 42" fill="none" xmlns="http://www.w3.org/2000/svg">
<path d="M38.5823 3.35537C34.107 -1.11846 26.8236 -1.11846 22.348 3.35537L15.8947 9.81064C18.6664 9.30061 21.5575 9.64013 24.1653 10.8158L26.9863 7.99678C28.905 6.07803 32.0258 6.07803 33.9431 7.99678C35.8618 9.91211 35.8618 13.0349 33.9431 14.9536L31.124 17.7727L29.2365 19.6621L26.9866 21.9104C25.9845 22.9126 24.6529 23.3783 23.336 23.3322C22.3731 23.2994 21.4252 22.9797 20.6118 22.3877C20.4119 22.2401 20.2102 22.0924 20.0297 21.9105C19.8478 21.7285 19.7001 21.5302 19.5525 21.3284C18.6293 20.8546 17.4681 20.9923 16.6957 21.7663L13.8438 24.6167C14.2817 25.3022 14.7933 25.9518 15.3903 26.5484C15.9873 27.147 16.6384 27.657 17.324 28.0949C18.0671 28.5721 18.8525 28.9479 19.6658 29.2313C22.5997 30.2727 25.8681 30.0889 28.6792 28.6736C29.7404 28.1388 30.7406 27.4339 31.6264 26.5466L32.133 26.04L38.5863 19.5882C43.0599 15.1178 43.0599 7.83237 38.5825 3.35581L38.5823 3.35537Z" fill="#F5BD20"/>
<path d="M17.7767 31.123L14.9557 33.942C13.0369 35.8608 9.91614 35.8608 7.99729 33.942C6.07854 32.0233 6.07854 28.9039 7.99729 26.9852L10.8183 24.1627L12.7058 22.2768L14.9557 20.0284C15.9578 19.0263 17.2895 18.5575 18.6064 18.6067C19.5692 18.6395 20.5171 18.9561 21.3305 19.5512C21.5304 19.6988 21.7322 19.8464 21.9126 20.0284C22.0946 20.2073 22.2422 20.4087 22.3898 20.6105C23.313 21.0843 24.4742 20.9436 25.2467 20.1711L28.0971 17.3207C27.6591 16.6352 27.1491 15.9855 26.5506 15.3889C25.9551 14.7904 25.3043 14.2769 24.6188 13.8425C23.8776 13.3652 23.0903 12.9895 22.277 12.7026C19.3432 11.6646 16.0747 11.8466 13.2637 13.2634C12.2009 13.7982 11.2022 14.5031 10.3149 15.3904L9.80986 15.894L3.35654 22.3492C-1.11885 26.8246 -1.11885 34.108 3.35654 38.5817C7.83193 43.059 15.1153 43.059 19.5909 38.5817L26.0442 32.1299C23.274 32.638 20.3844 32.2955 17.7767 31.1229L17.7767 31.123Z" fill="#F5BD20"/>
</svg>
