<svg width="43" height="31" viewBox="0 0 43 31" fill="none" xmlns="http://www.w3.org/2000/svg">
<path fill-rule="evenodd" clip-rule="evenodd" d="M10.25 22.55C8.55166 22.55 7.175 23.9267 7.175 25.6246C7.175 27.3229 8.55176 28.6996 10.25 28.6996C11.9483 28.6996 13.325 27.3228 13.325 25.6246C13.325 23.9266 11.9482 22.55 10.25 22.55ZM5.125 25.6246C5.125 22.7945 7.41953 20.4999 10.25 20.4999C13.0805 20.4999 15.375 22.7944 15.375 25.6246C15.375 28.4551 13.0805 30.7496 10.25 30.7496C7.41953 30.7496 5.125 28.4551 5.125 25.6246Z" fill="#F5BD20"/>
<path fill-rule="evenodd" clip-rule="evenodd" d="M31.7744 21.5256C30.0765 21.5256 28.6994 22.9023 28.6994 24.6002C28.6994 26.2985 30.0766 27.6752 31.7744 27.6752C33.4728 27.6752 34.8494 26.2984 34.8494 24.6002C34.8494 22.9022 33.4727 21.5256 31.7744 21.5256ZM26.6497 24.6002C26.6497 21.7701 28.9442 19.4755 31.7744 19.4755C34.6049 19.4755 36.8994 21.77 36.8994 24.6002C36.8994 27.4306 34.6049 29.7252 31.7744 29.7252C28.9443 29.7252 26.6497 27.4306 26.6497 24.6002Z" fill="#F5BD20"/>
<path fill-rule="evenodd" clip-rule="evenodd" d="M23.5752 6.15061C23.5752 5.58451 24.0341 5.12561 24.6002 5.12561H32.7999C37.8948 5.12561 42.025 9.25579 42.025 14.3507V21.5258C42.025 23.2238 40.6482 24.6004 38.95 24.6004H35.875V22.5508H38.95C39.5161 22.5508 39.975 22.0915 39.975 21.5258V14.3507C39.975 10.388 36.7626 7.17561 32.7999 7.17561H25.6252V15.3757H23.5752V6.15061ZM14.3501 22.551H27.6753V24.6006H14.3501V22.551Z" fill="#F5BD20"/>
<path fill-rule="evenodd" clip-rule="evenodd" d="M22.5498 2.05H0V0H22.5498C24.2478 0 25.6248 1.37676 25.6248 3.075V23.575C25.6248 24.1411 25.1655 24.6 24.5998 24.6H14.3498V22.5504H23.5749V3.07481C23.5749 2.5087 23.1156 2.04981 22.5499 2.04981L22.5498 2.05ZM0 22.55H6.1501V24.5996H0V22.55Z" fill="#F5BD20"/>
<path fill-rule="evenodd" clip-rule="evenodd" d="M10.25 16.4006H0V14.3506H10.25V16.4006Z" fill="#F5BD20"/>
<path fill-rule="evenodd" clip-rule="evenodd" d="M10.25 9.2248H4.09991V7.1748H10.25V9.2248Z" fill="#F5BD20"/>
</svg>
