<svg width="21" height="17" viewBox="0 0 21 17" fill="none" xmlns="http://www.w3.org/2000/svg">
<path d="M2.16671 16.8334C1.59379 16.8334 1.099 16.6338 0.682332 16.2345C0.283027 15.8178 0.083374 15.323 0.083374 14.7501V2.25008C0.083374 1.67716 0.283027 1.19105 0.682332 0.791747C1.099 0.375081 1.59379 0.166748 2.16671 0.166748H18.8334C19.4063 0.166748 19.8924 0.375081 20.2917 0.791747C20.7084 1.19105 20.9167 1.67716 20.9167 2.25008V14.7501C20.9167 15.323 20.7084 15.8178 20.2917 16.2345C19.8924 16.6338 19.4063 16.8334 18.8334 16.8334H2.16671ZM10.5 9.54175L18.8334 4.33342V2.25008L10.5 7.45842L2.16671 2.25008V4.33342L10.5 9.54175Z" fill="#BEBEBE"/>
</svg>
