<svg width="44" height="41" viewBox="0 0 44 41" fill="none" xmlns="http://www.w3.org/2000/svg">
<path d="M42.5 32.25H41.475V7.65041C41.475 7.37841 41.3671 7.11788 41.1748 6.92561C40.9826 6.73335 40.722 6.6254 40.45 6.6254H29.1756C28.6095 6.6254 28.1506 7.0843 28.1506 7.6504V32.25H27.1256V1.50001C27.1256 0.933903 26.6667 0.475006 26.1006 0.475006C25.5345 0.475006 25.0756 0.933913 25.0756 1.50001V27.125H23.0256V22C23.0271 21.7273 22.92 21.4656 22.7281 21.2722L19.9506 18.4737L18.9256 1.43857C18.8928 0.896502 18.4434 0.473835 17.9006 0.474978H2.52563C1.95952 0.474978 1.50063 0.933884 1.50063 1.49998L0.475627 33.2754C0.465709 33.5535 0.569468 33.8235 0.762492 34.0238C0.962004 34.2107 1.2275 34.3103 1.50064 34.3004H4.65767C5.00519 36.5808 6.42808 38.5545 8.48111 39.6055C10.5341 40.6568 12.9672 40.6568 15.0203 39.6055C17.0733 38.5545 18.4959 36.5807 18.8437 34.3004H42.5009C43.067 34.3004 43.5259 33.8415 43.5259 33.2754C43.5259 32.7093 43.067 32.2504 42.5009 32.2504L42.5 32.25ZM3.54985 2.52541H16.9366L17.9002 18.9873C17.9211 19.2364 18.0257 19.4714 18.1973 19.6534L20.9752 22.4209V32.251H18.8431C18.4952 29.9709 17.0727 27.9972 15.0197 26.9463C12.9667 25.895 10.5336 25.895 8.48053 26.9463C6.4275 27.9973 5.00455 29.971 4.65709 32.251H2.52506L3.54985 2.52541ZM11.7499 38.4004C10.3908 38.4004 9.08686 37.8606 8.12602 36.8993C7.16471 35.9384 6.62494 34.6349 6.62494 33.2754C6.62494 31.9162 7.16472 30.6127 8.12602 29.6519C9.08694 28.6906 10.3908 28.1508 11.7499 28.1508C13.1091 28.1508 14.4126 28.6906 15.3739 29.6519C16.3348 30.6128 16.8749 31.9163 16.8749 33.2754C16.8749 34.635 16.3348 35.9385 15.3739 36.8993C14.4126 37.8606 13.1091 38.4004 11.7499 38.4004ZM23.0253 29.1753H25.0753V32.2503H23.0253V29.1753ZM30.2004 18.9253H39.4255V22.0003L30.2 22.0007L30.2004 18.9253ZM39.4255 16.8753L30.2 16.8757V13.8007H39.4251L39.4255 16.8753ZM30.2004 24.0504H39.4255V27.1254L30.2 27.1258L30.2004 24.0504ZM30.2004 8.67541H39.4255V11.7504L30.2 11.7508L30.2004 8.67541ZM30.2004 32.2506L30.2001 29.176H39.4251V32.251L30.2004 32.2506Z" fill="#F5BD20"/>
<path d="M5.59965 19.9502H14.8247C15.1086 19.9491 15.3798 19.8304 15.5728 19.6221C15.7704 19.4127 15.8707 19.13 15.8498 18.8432L14.8248 5.51798C14.7816 4.98391 14.3353 4.57307 13.7998 4.57499H6.62466C6.08907 4.57308 5.64234 4.98392 5.59966 5.51798L4.57466 18.8432C4.5533 19.13 4.65401 19.4127 4.85122 19.6221C5.04463 19.8304 5.31545 19.9491 5.59965 19.9502ZM7.57797 6.62501H12.8464L13.7177 17.9004H6.70667L7.57797 6.62501Z" fill="#F5BD20"/>
</svg>
