<svg width="50" height="34" viewBox="0 0 50 34" fill="none" xmlns="http://www.w3.org/2000/svg">
<path fill-rule="evenodd" clip-rule="evenodd" d="M36.1123 28.0039C36.1123 26.2434 37.5726 24.8316 39.335 24.8316C41.0981 24.8316 42.5584 26.2427 42.5584 28.0039C42.5584 29.7651 41.097 31.1755 39.335 31.1755C37.5726 31.1743 36.1123 29.7633 36.1123 28.0039ZM10.6797 24.8316C12.4421 24.8316 13.9023 26.2427 13.9023 28.0039C13.9023 29.7651 12.4421 31.1755 10.6797 31.1755C8.91729 31.1755 7.45703 29.7644 7.45703 28.0039C7.45818 26.2434 8.91729 24.8316 10.6797 24.8316ZM31.7402 18.5626H46.9307V26.6707H45.1183C44.5014 24.076 42.1241 22.1601 39.3352 22.1601C36.5474 22.1601 34.1712 24.077 33.554 26.6707H31.7405L31.7402 18.5626ZM31.7402 15.8931V9.53934L42.7305 9.5031L46.5002 15.8924L31.7404 15.892L31.7402 15.8931ZM0.399414 0.151844V29.3403H4.89805C5.51603 31.932 7.89336 33.847 10.6792 33.847C13.467 33.847 15.8432 31.9331 16.4623 29.3403H33.5541C34.1732 31.932 36.5482 33.847 39.3342 33.847C42.122 33.847 44.4981 31.9331 45.1173 29.3403H49.5992V15.8931L44.251 6.8286L31.7393 6.8698V0.151733L0.399414 0.151844ZM29.0703 2.82255V26.6712H16.4619C15.8439 24.0765 13.4678 22.1606 10.6788 22.1606C7.89102 22.1606 5.51484 24.0775 4.89766 26.6712H3.06855V2.82255H29.0703Z" fill="#F5BD20"/>
</svg>
