<svg width="18" height="21" viewBox="0 0 18 21" fill="none" xmlns="http://www.w3.org/2000/svg">
<path d="M4.83333 9.625V6.125C4.83333 4.96468 5.27232 3.85188 6.05372 3.03141C6.83512 2.21094 7.89493 1.75 9 1.75C10.1051 1.75 11.1649 2.21094 11.9463 3.03141C12.7277 3.85188 13.1667 4.96468 13.1667 6.125V9.625M3.16667 9.625H14.8333C15.7538 9.625 16.5 10.4085 16.5 11.375V17.5C16.5 18.4665 15.7538 19.25 14.8333 19.25H3.16667C2.24619 19.25 1.5 18.4665 1.5 17.5V11.375C1.5 10.4085 2.24619 9.625 3.16667 9.625Z" stroke="#B3B3B3" stroke-width="3" stroke-linecap="round" stroke-linejoin="round"/>
</svg>
