<svg width="173" height="36" viewBox="0 0 173 36" fill="none" xmlns="http://www.w3.org/2000/svg">
<path d="M44.6038 20.1088C44.6038 19.7213 44.5391 19.4135 44.4106 19.1842C44.2811 18.9549 44.1028 18.7797 43.8735 18.6577C43.6442 18.5356 43.3788 18.4539 43.0784 18.4103C42.7769 18.3668 42.4553 18.3456 42.1113 18.3456H41.3163V22.0005H41.8757C42.2196 22.0005 42.5561 21.9792 42.8863 21.9357C43.2154 21.8932 43.5062 21.8062 43.7567 21.6778C44.0073 21.5482 44.2121 21.3593 44.3692 21.1077C44.5274 20.8572 44.606 20.5239 44.606 20.1077L44.6038 20.1088ZM48.5814 19.9581C48.5814 20.8614 48.4349 21.6417 48.1409 22.3009C47.8469 22.9601 47.4424 23.5078 46.9265 23.9452C46.4106 24.3826 45.7906 24.7084 45.0667 24.9239C44.3427 25.1384 43.5508 25.2466 42.6909 25.2466H41.3152V30.3197H37.1232V14.8414H43.0572C44.0603 14.8414 44.9128 15.0028 45.6155 15.3255C46.3182 15.6482 46.8872 16.0558 47.3246 16.5505C47.7619 17.0452 48.0804 17.5929 48.281 18.1948C48.4817 18.7967 48.5825 19.3848 48.5825 19.9581H48.5814ZM49.7513 30.3197V14.8414H53.5346V30.3197H49.7513ZM62.5088 30.3197V28.9228C62.0354 29.5395 61.5131 29.9726 60.9399 30.2232C60.3667 30.4737 59.6926 30.5989 58.9187 30.5989C58.3455 30.5989 57.8221 30.5098 57.3498 30.3304C56.8774 30.151 56.4719 29.893 56.1354 29.5565C55.7988 29.22 55.5366 28.8187 55.3509 28.3527C55.164 27.8867 55.0717 27.3676 55.0717 26.7944V19.1842H58.855V25.2042C58.855 25.5057 58.8731 25.7987 58.9092 26.0853C58.9453 26.3719 59.0206 26.6224 59.1353 26.8379C59.2499 27.0534 59.4145 27.2285 59.6299 27.3644C59.8444 27.5003 60.1384 27.5682 60.511 27.5682C60.8698 27.5682 61.1745 27.5003 61.425 27.3644C61.6755 27.2285 61.8804 27.0491 62.0375 26.8273C62.1957 26.6054 62.3103 26.3475 62.3815 26.0534C62.4526 25.7594 62.4887 25.4483 62.4887 25.1182V19.1842H66.272V30.3208H62.5099L62.5088 30.3197ZM71.5903 21.527V30.3197H67.807V21.527H66.6457V19.1842H67.807V16.9911L71.5903 15.3998V19.1831H72.7517V21.526H71.5903V21.527ZM80.865 24.7414C80.865 24.3974 80.8363 24.046 80.779 23.6809C80.7217 23.3157 80.6145 22.9898 80.4563 22.6958C80.2981 22.4017 80.0805 22.1618 79.8003 21.9686C79.5211 21.7754 79.1591 21.6788 78.7143 21.6788C78.2695 21.6788 77.9086 21.7754 77.6284 21.9686C77.3492 22.1618 77.1263 22.4017 76.9617 22.6958C76.7972 22.9898 76.6857 23.3157 76.6284 23.6809C76.5711 24.046 76.5424 24.3974 76.5424 24.7414C76.5424 25.0853 76.5711 25.4367 76.6284 25.8018C76.6857 26.167 76.7972 26.4971 76.9617 26.7976C77.1263 27.099 77.3492 27.3421 77.6284 27.5353C77.9076 27.7285 78.2695 27.8251 78.7143 27.8251C79.1591 27.8251 79.52 27.7285 79.8003 27.5353C80.0795 27.3421 80.2981 27.098 80.4563 26.7976C80.6134 26.4961 80.7217 26.167 80.779 25.8018C80.8363 25.4367 80.865 25.0853 80.865 24.7414ZM84.6483 24.7307C84.6483 25.5046 84.5305 26.2466 84.2938 26.9557C84.0571 27.6648 83.6951 28.289 83.2078 28.8262C82.7206 29.3633 82.1038 29.7932 81.3586 30.1159C80.6134 30.4386 79.7323 30.6 78.7143 30.6C77.6963 30.6 76.812 30.4386 76.0594 30.1159C75.3068 29.7932 74.6868 29.3633 74.1996 28.8262C73.7123 28.289 73.3504 27.6648 73.1136 26.9557C72.8769 26.2466 72.7591 25.5046 72.7591 24.7307C72.7591 23.9569 72.8769 23.2191 73.1136 22.5164C73.3504 21.8136 73.7123 21.1937 74.1996 20.6565C74.6868 20.1194 75.3068 19.6927 76.0594 19.3774C76.812 19.0621 77.6974 18.9039 78.7143 18.9039C79.7323 18.9039 80.6134 19.0621 81.3586 19.3774C82.1038 19.6927 82.7206 20.1194 83.2078 20.6565C83.6951 21.1937 84.0571 21.8136 84.2938 22.5164C84.5305 23.2191 84.6483 23.9569 84.6483 24.7307Z" fill="#22153B"/>
<path d="M85.867 30.4259L89.4359 14.9476H98.9377L98.5503 16.6885H91.0685L89.886 21.8699H96.7223L96.3348 23.5036H89.4985L88.316 28.685H95.9262L95.5175 30.4259H85.8649H85.867ZM107.205 30.4694C106.818 30.4694 106.478 30.4301 106.184 30.3516C105.89 30.273 105.654 30.1371 105.475 29.9429C105.295 29.7497 105.181 29.4917 105.131 29.169C105.081 28.8463 105.113 28.4344 105.227 27.9323L106.173 23.8687C106.273 23.424 106.324 23.0015 106.324 22.6002C106.324 22.1989 106.249 21.8518 106.098 21.5578C105.947 21.2637 105.718 21.0312 105.41 20.8593C105.102 20.6873 104.704 20.6013 104.217 20.6013C103.672 20.6013 103.182 20.7011 102.744 20.9028C102.307 21.1034 101.916 21.3752 101.572 21.7202C101.229 22.0641 100.942 22.458 100.713 22.9027C100.483 23.3475 100.311 23.8125 100.197 24.2997L98.7997 30.4269H96.9293L98.7785 22.4293C98.8645 22.0705 98.8963 21.7839 98.8751 21.5694C98.8539 21.354 98.7923 21.1894 98.6925 21.0748C98.5917 20.9601 98.46 20.8848 98.2944 20.8487C98.1299 20.8126 97.9399 20.7945 97.7244 20.7945L98.7997 19.2893C99.2583 19.2893 99.6203 19.3498 99.8857 19.4718C100.151 19.5939 100.352 19.7616 100.488 19.9771C100.623 20.1926 100.706 20.4432 100.735 20.7298C100.764 21.0164 100.764 21.3179 100.735 21.6331C101.251 20.7733 101.899 20.1321 102.681 19.7096C103.462 19.2871 104.319 19.0759 105.25 19.0759C106.453 19.0759 107.321 19.4273 107.85 20.1289C108.38 20.8317 108.51 21.7775 108.238 22.9664L107.292 27.0725C107.134 27.8039 107.134 28.3049 107.292 28.5777C107.449 28.8506 107.779 28.979 108.281 28.9652L107.206 30.4705L107.205 30.4694ZM110.656 30.4694C110.327 30.4694 110.015 30.4376 109.721 30.3728C109.427 30.308 109.184 30.1828 108.991 29.997C108.797 29.8102 108.668 29.5522 108.603 29.2232C108.538 28.893 108.571 28.4631 108.7 27.9334L110.398 20.5812H109.237L109.516 19.3338H110.677L111.3 16.7331L113.322 16.0452L112.548 19.3349H113.709L113.408 20.5822H112.246L110.699 27.3326C110.613 27.6914 110.581 27.978 110.602 28.1924C110.623 28.4079 110.685 28.5724 110.785 28.6871C110.885 28.8017 111.017 28.8771 111.183 28.9132C111.347 28.9493 111.53 28.9673 111.73 28.9673L110.655 30.4726L110.656 30.4694ZM121.396 22.5471C121.367 21.906 121.141 21.4081 120.718 21.0493C120.296 20.6947 119.733 20.5153 119.031 20.5153C118.414 20.5153 117.855 20.6268 117.353 20.8487C116.851 21.0673 116.411 21.3646 116.031 21.734C115.651 22.1066 115.332 22.5365 115.074 23.0312C114.816 23.5216 114.616 24.0375 114.472 24.5789C114.457 24.6362 114.447 24.6861 114.44 24.7297C114.433 24.7732 114.422 24.8231 114.409 24.8804L121.396 22.5482V22.5471ZM122.428 26.3846C122.198 27.0587 121.883 27.6606 121.482 28.1903C121.08 28.721 120.622 29.1722 120.106 29.5416C119.59 29.911 119.024 30.1934 118.407 30.3909C117.791 30.5883 117.154 30.6849 116.495 30.6849C115.677 30.6849 114.975 30.5384 114.387 30.2444C113.799 29.9503 113.334 29.549 112.99 29.0406C112.646 28.5321 112.428 27.9334 112.334 27.2455C112.241 26.5576 112.288 25.8199 112.475 25.0311C112.661 24.1999 112.962 23.4218 113.378 22.6989C113.793 21.975 114.295 21.3444 114.883 20.8073C115.471 20.2701 116.141 19.8466 116.894 19.5387C117.646 19.2309 118.459 19.077 119.334 19.077C119.951 19.077 120.512 19.1629 121.022 19.3349C121.531 19.5069 121.96 19.7616 122.312 20.095C122.663 20.4315 122.921 20.8434 123.086 21.3317C123.25 21.8157 123.289 22.3741 123.203 23.0047L114.174 26.0502C114.131 26.495 114.153 26.9069 114.239 27.2933C114.325 27.6807 114.476 28.0204 114.69 28.3145C114.905 28.6043 115.192 28.8336 115.55 28.9992C115.909 29.1637 116.345 29.2465 116.861 29.2465C117.721 29.2465 118.499 28.9854 119.193 28.462C119.888 27.9387 120.372 27.2476 120.644 26.3878H122.429L122.428 26.3846ZM130.028 20.6013C129.484 20.6013 128.993 20.7011 128.556 20.9028C128.118 21.1034 127.728 21.3752 127.384 21.7202C127.04 22.0641 126.753 22.458 126.524 22.9027C126.295 23.3475 126.123 23.8125 126.008 24.2997L124.611 30.4269H122.741L124.59 22.4293C124.676 22.0705 124.708 21.7839 124.686 21.5694C124.665 21.354 124.604 21.1894 124.504 21.0748C124.403 20.9601 124.271 20.8848 124.106 20.8487C123.941 20.8126 123.751 20.7945 123.536 20.7945L124.611 19.2893C125.07 19.2893 125.432 19.3498 125.697 19.4718C125.962 19.5939 126.163 19.7616 126.299 19.9771C126.435 20.1926 126.514 20.4389 126.536 20.7192C126.557 20.9983 126.561 21.2956 126.546 21.6119C127.65 19.9209 129.154 19.0748 131.061 19.0748C131.147 19.0748 131.23 19.0748 131.308 19.0748C131.387 19.0748 131.47 19.0823 131.556 19.0961L130.029 20.6013H130.028ZM139.671 25.0301C139.814 24.4027 139.875 23.8114 139.854 23.2637C139.833 22.7159 139.707 22.2393 139.478 21.8306C139.249 21.4261 138.912 21.1034 138.467 20.8699C138.023 20.6332 137.457 20.5153 136.769 20.5153C136.44 20.5153 136.07 20.5758 135.662 20.6979C135.253 20.82 134.862 20.9877 134.49 21.2106C134.117 21.4325 133.787 21.6947 133.5 22.0026C133.214 22.3072 133.027 22.648 132.941 23.0206L132.167 26.3995C132.067 26.8549 132.074 27.2593 132.188 27.6064C132.303 27.9578 132.493 28.2518 132.758 28.4949C133.024 28.7391 133.342 28.9217 133.715 29.0501C134.087 29.1796 134.481 29.2433 134.897 29.2433C135.543 29.2433 136.127 29.1361 136.65 28.9206C137.173 28.7094 137.635 28.4121 138.036 28.0353C138.438 27.6553 138.774 27.2115 139.047 26.6988C139.319 26.1829 139.527 25.6277 139.67 25.029L139.671 25.0301ZM141.542 25.0301C141.355 25.8326 141.058 26.5778 140.65 27.2657C140.241 27.9536 139.747 28.548 139.167 29.0501C138.586 29.5522 137.934 29.9493 137.211 30.2433C136.487 30.5373 135.717 30.6838 134.9 30.6838C134.126 30.6838 133.448 30.5373 132.868 30.2433C132.287 29.9493 131.861 29.5013 131.589 28.8994L130.922 31.7581C130.792 32.3027 130.792 32.7146 130.922 32.9948C131.051 33.274 131.402 33.4067 131.975 33.3929L130.9 34.8981C130.527 34.8981 130.194 34.8589 129.9 34.7803C129.606 34.7018 129.366 34.5616 129.18 34.361C128.993 34.1604 128.875 33.895 128.825 33.5659C128.776 33.2368 128.807 32.8356 128.922 32.3621L131.222 22.4304C131.352 21.8858 131.352 21.4739 131.222 21.1937C131.093 20.9145 130.743 20.7818 130.169 20.7956L131.245 19.2903C131.847 19.2903 132.316 19.4156 132.652 19.6661C132.989 19.9166 133.171 20.3147 133.2 20.8593C133.759 20.2574 134.419 19.8094 135.178 19.5154C135.938 19.2213 136.683 19.0748 137.413 19.0748C138.288 19.0748 139.029 19.2288 139.638 19.5366C140.248 19.8444 140.724 20.268 141.068 20.8051C141.412 21.3423 141.623 21.9728 141.702 22.6968C141.78 23.4208 141.727 24.1978 141.541 25.029L141.542 25.0301ZM148.82 20.6013C148.275 20.6013 147.785 20.7011 147.347 20.9028C146.91 21.1034 146.519 21.3752 146.175 21.7202C145.831 22.0641 145.545 22.458 145.315 22.9027C145.086 23.3475 144.914 23.8125 144.799 24.2997L143.402 30.4269H141.532L143.381 22.4293C143.467 22.0705 143.499 21.7839 143.478 21.5694C143.457 21.354 143.395 21.1894 143.295 21.0748C143.194 20.9601 143.063 20.8848 142.897 20.8487C142.733 20.8126 142.543 20.7945 142.327 20.7945L143.402 19.2893C143.861 19.2893 144.223 19.3498 144.488 19.4718C144.754 19.5939 144.954 19.7616 145.09 19.9771C145.226 20.1926 145.306 20.4389 145.327 20.7192C145.348 20.9983 145.353 21.2956 145.338 21.6119C146.442 19.9209 147.946 19.0748 149.852 19.0748C149.938 19.0748 150.021 19.0748 150.1 19.0748C150.178 19.0748 150.261 19.0823 150.347 19.0961L148.821 20.6013H148.82ZM150.705 30.4694C150.376 30.4694 150.064 30.4376 149.77 30.3728C149.476 30.308 149.232 30.1828 149.039 29.997C148.846 29.8102 148.717 29.5522 148.652 29.2232C148.587 28.893 148.62 28.4631 148.748 27.9334L150.017 22.4304C150.103 22.0716 150.135 21.7849 150.114 21.5705C150.092 21.355 150.031 21.1905 149.931 21.0758C149.83 20.9612 149.698 20.8858 149.533 20.8497C149.368 20.8136 149.178 20.7956 148.963 20.7956L150.038 19.2903C150.367 19.2903 150.679 19.3222 150.973 19.3869C151.267 19.4517 151.511 19.5769 151.704 19.7627C151.897 19.9495 152.03 20.2075 152.102 20.5366C152.173 20.8667 152.145 21.2966 152.016 21.8263L150.747 27.3294C150.661 27.6882 150.629 27.9748 150.651 28.1892C150.672 28.4047 150.733 28.5692 150.833 28.6839C150.934 28.7985 151.066 28.8739 151.231 28.91C151.396 28.9461 151.578 28.9641 151.779 28.9641L150.704 30.4694H150.705ZM153.797 15.7427C153.797 16.0866 153.664 16.3658 153.396 16.5813C153.127 16.7957 152.83 16.904 152.497 16.904C152.163 16.904 151.866 16.7968 151.598 16.5813C151.329 16.3658 151.196 16.0866 151.196 15.7427C151.196 15.3987 151.329 15.1195 151.598 14.904C151.866 14.6885 152.163 14.5813 152.497 14.5813C152.83 14.5813 153.127 14.6885 153.396 14.904C153.664 15.1185 153.797 15.3987 153.797 15.7427ZM161.14 27.2869C160.996 27.9323 160.738 28.4695 160.366 28.8994C159.993 29.3293 159.553 29.6764 159.043 29.9418C158.535 30.2072 157.993 30.3972 157.42 30.5119C156.847 30.6265 156.281 30.6838 155.722 30.6838C155.019 30.6838 154.388 30.6085 153.83 30.4577C153.271 30.307 152.812 30.0703 152.454 29.7486C152.095 29.4259 151.852 29.0108 151.723 28.5013C151.593 27.9928 151.608 27.3867 151.766 26.685H153.551C153.35 27.6308 153.48 28.3262 153.938 28.7699C154.397 29.2147 155.106 29.4365 156.067 29.4365C156.367 29.4365 156.69 29.4004 157.034 29.3293C157.378 29.2582 157.704 29.1467 158.011 28.996C158.319 28.8452 158.588 28.6489 158.817 28.4047C159.046 28.1606 159.205 27.8601 159.289 27.5013C159.375 27.1287 159.365 26.8273 159.258 26.598C159.15 26.3687 158.971 26.1787 158.721 26.0279C158.47 25.8772 158.158 25.7519 157.785 25.6521C157.413 25.5523 156.997 25.4515 156.538 25.3517C155.979 25.2222 155.463 25.0863 154.99 24.943C154.518 24.7997 154.127 24.6097 153.818 24.373C153.51 24.1363 153.295 23.839 153.173 23.4813C153.051 23.1225 153.055 22.6713 153.184 22.1268C153.284 21.6682 153.485 21.252 153.785 20.8794C154.087 20.5068 154.455 20.1841 154.893 19.9124C155.33 19.6396 155.828 19.4326 156.386 19.2893C156.946 19.146 157.548 19.0748 158.192 19.0748C158.809 19.0748 159.374 19.1353 159.89 19.2574C160.406 19.3795 160.836 19.5801 161.18 19.8593C161.524 20.1385 161.768 20.5047 161.91 20.9559C162.054 21.407 162.054 21.9558 161.91 22.6002H160.191C160.277 22.1851 160.284 21.8263 160.212 21.5249C160.141 21.2234 160.004 20.9771 159.803 20.7828C159.603 20.5896 159.345 20.4463 159.029 20.3529C158.714 20.2595 158.363 20.2128 157.976 20.2128C157.432 20.2128 156.976 20.2839 156.611 20.4272C156.246 20.5705 155.952 20.7393 155.73 20.9325C155.508 21.1257 155.34 21.3232 155.225 21.5238C155.11 21.7244 155.038 21.889 155.009 22.0185C154.91 22.4484 154.984 22.7892 155.235 23.0397C155.486 23.2902 155.809 23.4908 156.203 23.6416C156.596 23.7923 157.02 23.9144 157.471 24.0067C157.922 24.1002 158.305 24.1893 158.621 24.2753C158.993 24.39 159.355 24.5152 159.707 24.6511C160.058 24.787 160.358 24.9664 160.61 25.1882C160.861 25.4101 161.04 25.6903 161.147 26.0269C161.254 26.3634 161.251 26.7827 161.137 27.2848L161.14 27.2869ZM171.148 22.5461C171.119 21.9049 170.893 21.407 170.471 21.0482C170.048 20.6937 169.486 20.5143 168.783 20.5143C168.166 20.5143 167.608 20.6257 167.106 20.8476C166.604 21.0663 166.163 21.3635 165.783 21.7329C165.403 22.1055 165.084 22.5355 164.826 23.0301C164.569 23.5206 164.368 24.0365 164.225 24.5779C164.21 24.6352 164.199 24.6851 164.193 24.7286C164.185 24.7721 164.175 24.822 164.161 24.8793L171.148 22.5471V22.5461ZM172.18 26.3835C171.95 27.0576 171.635 27.6595 171.234 28.1892C170.833 28.72 170.374 29.1711 169.858 29.5406C169.342 29.91 168.776 30.1923 168.16 30.3898C167.543 30.5872 166.906 30.6838 166.247 30.6838C165.429 30.6838 164.728 30.5373 164.14 30.2433C163.552 29.9493 163.087 29.548 162.743 29.0395C162.399 28.531 162.18 27.9323 162.087 27.2444C161.993 26.5566 162.04 25.8188 162.227 25.0301C162.414 24.1989 162.714 23.4208 163.13 22.6979C163.545 21.9739 164.047 21.3433 164.635 20.8062C165.224 20.2691 165.893 19.8455 166.646 19.5377C167.399 19.2298 168.212 19.0759 169.086 19.0759C169.703 19.0759 170.265 19.1619 170.774 19.3338C171.283 19.5058 171.713 19.7606 172.064 20.0939C172.415 20.4304 172.673 20.8423 172.838 21.3306C173.002 21.8147 173.042 22.373 172.956 23.0036L163.926 26.0492C163.883 26.4939 163.905 26.9058 163.991 27.2922C164.077 27.6797 164.228 28.0194 164.442 28.3134C164.658 28.6032 164.944 28.8325 165.302 28.9981C165.661 29.1626 166.097 29.2454 166.613 29.2454C167.473 29.2454 168.251 28.9843 168.945 28.461C169.641 27.9376 170.125 27.2466 170.396 26.3867H172.181L172.18 26.3835Z" fill="#1A1A1A"/>
<path fill-rule="evenodd" clip-rule="evenodd" d="M8.36388 30.5161C9.1664 32.325 10.056 33.9544 11.039 35.4204H13.937L14.5314 32.8218C12.4582 31.3696 10.5931 29.6605 8.99762 27.771C7.76623 26.3113 6.69514 24.7445 5.81512 23.1044C6.54546 25.8623 7.39044 28.3219 8.36388 30.5161ZM17.1226 11.9349C20.5344 12.8903 24.3719 13.3924 28.7062 13.5877C28.3123 13.282 27.8654 13.0071 27.3654 12.7629C26.2349 12.2109 24.7891 11.9349 23.0269 11.9349H17.1226ZM12.6334 12.0251C7.18769 9.37659 2.6995 5.03064 0 0C2.36405 8.93286 5.93826 14.7278 11.1334 18.5228C15.8085 21.9367 21.7945 23.7318 29.393 24.736C30.0363 23.667 30.5172 22.4495 30.8356 21.0843C31.0723 20.0069 31.1318 18.922 31.0129 17.8307C30.8951 16.7394 30.5395 15.7596 29.9482 14.8924C29.7921 14.6631 29.617 14.4454 29.4238 14.2384C23.4505 15.4592 17.6386 14.4592 12.6334 12.0251ZM10.6929 20.4304C7.57515 17.9931 5.00092 14.9603 3.21222 11.6271C4.76101 17.4783 6.82889 21.9834 9.53051 25.461C11.1324 27.5236 12.9582 29.2253 15.0314 30.6329L15.0601 30.5087H18.1364C19.6608 30.5087 21.114 30.3176 22.494 29.9365C23.8751 29.5554 25.1171 28.9705 26.2211 28.1818C26.9451 27.6648 27.6043 27.0629 28.1977 26.3761C21.6597 26.5555 15.5229 24.2063 10.6918 20.4293L10.6929 20.4304Z" fill="#F5BD20"/>
</svg>
