<svg width="297" height="61" viewBox="0 0 297 61" fill="none" xmlns="http://www.w3.org/2000/svg">
<path d="M76.5736 34.5191C76.5736 33.8536 76.4623 33.3267 76.2422 32.9309C76.0195 32.5375 75.7128 32.2357 75.3194 32.0255C74.9261 31.8177 74.4709 31.6742 73.9539 31.6C73.4369 31.5258 72.8828 31.4887 72.294 31.4887H70.9285V37.7622H71.8883C72.4795 37.7622 73.0559 37.7251 73.6224 37.6509C74.1889 37.5767 74.6861 37.4307 75.1166 37.2081C75.547 36.9879 75.8983 36.6614 76.1679 36.2309C76.4376 35.8005 76.5736 35.229 76.5736 34.5141V34.5191ZM83.4013 34.2618C83.4013 35.8128 83.149 37.1536 82.6443 38.2842C82.1397 39.4172 81.4445 40.3572 80.5589 41.1068C79.6733 41.8563 78.6096 42.4179 77.3677 42.7865C76.1259 43.1551 74.7653 43.3406 73.2885 43.3406H70.926V52.0508H63.7297V25.4774H73.9168C75.6386 25.4774 77.103 25.7544 78.3078 26.3085C79.5125 26.8627 80.4921 27.5628 81.2417 28.4113C81.9912 29.2598 82.5404 30.2023 82.8843 31.2339C83.2281 32.2679 83.4013 33.2772 83.4013 34.2593V34.2618ZM85.41 52.0508V25.4774H91.9062V52.0508H85.41ZM107.313 52.0508V49.6512C106.502 50.71 105.604 51.4546 104.619 51.885C103.634 52.3155 102.479 52.5307 101.148 52.5307C100.164 52.5307 99.2657 52.3773 98.4543 52.0681C97.6429 51.7614 96.9478 51.3186 96.3689 50.7397C95.79 50.1608 95.3423 49.4731 95.0207 48.6716C94.7016 47.8726 94.5408 46.9795 94.5408 45.995V32.9284H101.037V43.2639C101.037 43.7809 101.067 44.2856 101.128 44.7779C101.19 45.2701 101.319 45.7006 101.517 46.0692C101.715 46.4378 101.997 46.7396 102.365 46.9746C102.734 47.2071 103.239 47.3259 103.879 47.3259C104.495 47.3259 105.017 47.2096 105.448 46.9746C105.878 46.7396 106.229 46.4328 106.499 46.0519C106.769 45.6709 106.967 45.2281 107.09 44.7234C107.214 44.2188 107.276 43.6844 107.276 43.1179V32.9309H113.772V52.0483H107.313V52.0508ZM122.903 36.9557V52.0508H116.407V36.9557H114.413V32.9334H116.407V29.1682L122.903 26.4372V32.9334H124.897V36.9557H122.903ZM138.827 42.4748C138.827 41.8835 138.777 41.2824 138.678 40.654C138.579 40.0257 138.396 39.4666 138.124 38.962C137.854 38.4573 137.478 38.0467 136.998 37.7127C136.518 37.3812 135.898 37.213 135.136 37.213C134.374 37.213 133.753 37.3788 133.273 37.7127C132.793 38.0442 132.412 38.4573 132.128 38.962C131.846 39.4666 131.653 40.0257 131.556 40.654C131.457 41.2824 131.408 41.8835 131.408 42.4748C131.408 43.066 131.457 43.6671 131.556 44.2955C131.655 44.9238 131.846 45.4878 132.128 46.0049C132.41 46.5219 132.793 46.9399 133.273 47.2714C133.753 47.6029 134.374 47.7687 135.136 47.7687C135.898 47.7687 136.521 47.6029 136.998 47.2714C137.478 46.9399 137.854 46.5219 138.124 46.0049C138.394 45.4878 138.579 44.9213 138.678 44.2955C138.777 43.6671 138.827 43.066 138.827 42.4748ZM145.323 42.4574C145.323 43.7859 145.12 45.0599 144.714 46.277C144.308 47.4941 143.688 48.5652 142.851 49.4879C142.015 50.4107 140.956 51.1479 139.678 51.702C138.399 52.2561 136.885 52.5332 135.138 52.5332C133.392 52.5332 131.873 52.2561 130.579 51.702C129.288 51.1479 128.224 50.4107 127.385 49.4879C126.549 48.5652 125.928 47.4941 125.523 46.277C125.117 45.0599 124.914 43.7859 124.914 42.4574C124.914 41.129 125.117 39.8624 125.523 38.6552C125.928 37.4505 126.549 36.3843 127.385 35.4616C128.221 34.5388 129.285 33.8066 130.579 33.2648C131.87 32.7231 133.389 32.4534 135.138 32.4534C136.885 32.4534 138.399 32.7231 139.678 33.2648C140.956 33.8066 142.015 34.5388 142.851 35.4616C143.688 36.3843 144.308 37.448 144.714 38.6552C145.12 39.86 145.323 41.129 145.323 42.4574Z" fill="white"/>
<path d="M147.416 52.2341L153.543 25.6607H169.855L169.19 28.649H156.346L154.315 37.5448H166.053L165.388 40.35H153.652L151.621 49.2458H164.688L163.987 52.2341H147.416ZM184.05 52.3083C183.384 52.3083 182.801 52.2416 182.296 52.1055C181.791 51.9694 181.386 51.7369 181.079 51.4054C180.772 51.0739 180.574 50.6311 180.488 50.077C180.401 49.5229 180.458 48.8154 180.653 47.9545L182.276 40.9784C182.449 40.2165 182.533 39.4892 182.533 38.8015C182.533 38.1113 182.405 37.5151 182.145 37.0104C181.888 36.5058 181.492 36.105 180.965 35.8106C180.436 35.5163 179.753 35.3678 178.917 35.3678C177.982 35.3678 177.138 35.541 176.389 35.8849C175.639 36.2287 174.969 36.6963 174.377 37.2875C173.786 37.8787 173.294 38.5541 172.901 39.3185C172.507 40.0804 172.213 40.8819 172.015 41.7181L169.615 52.2366H166.404L169.578 38.5071C169.727 37.8911 169.781 37.3988 169.744 37.0302C169.707 36.6616 169.603 36.3771 169.43 36.1817C169.257 35.9838 169.029 35.8552 168.747 35.7933C168.465 35.7315 168.138 35.7018 167.77 35.7018L169.615 33.1192C170.402 33.1192 171.023 33.2231 171.478 33.4333C171.933 33.6411 172.277 33.9306 172.512 34.3016C172.747 34.6702 172.888 35.1007 172.938 35.593C172.987 36.0852 172.987 36.6023 172.938 37.144C173.823 35.6672 174.936 34.5663 176.277 33.8415C177.618 33.1167 179.087 32.753 180.688 32.753C182.754 32.753 184.243 33.3566 185.153 34.5614C186.064 35.7661 186.286 37.3914 185.819 39.4323L184.196 46.4826C183.926 47.7368 183.926 48.5977 184.196 49.0652C184.465 49.5328 185.032 49.7554 185.893 49.7307L184.047 52.3133L184.05 52.3083ZM189.975 52.3083C189.408 52.3083 188.874 52.2539 188.369 52.1426C187.864 52.0313 187.446 51.8161 187.115 51.4969C186.783 51.1778 186.561 50.735 186.449 50.1685C186.338 49.602 186.395 48.8648 186.615 47.9545L189.532 35.3307H187.538L188.018 33.1909H190.012L191.083 28.7257L194.554 27.5432L193.225 33.1909H195.219L194.702 35.3307H192.708L190.051 46.9204C189.903 47.5364 189.848 48.0287 189.886 48.3973C189.923 48.7659 190.027 49.0504 190.2 49.2458C190.373 49.4412 190.6 49.5723 190.882 49.6342C191.164 49.696 191.479 49.7257 191.825 49.7257L189.98 52.3083H189.975ZM208.412 38.7075C208.362 37.6066 207.974 36.7507 207.249 36.1372C206.524 35.5286 205.557 35.2219 204.352 35.2219C203.293 35.2219 202.334 35.4124 201.473 35.7933C200.612 36.1693 199.855 36.6789 199.202 37.3122C198.549 37.9529 198.002 38.6901 197.559 39.5386C197.116 40.3822 196.773 41.2678 196.525 42.1955C196.5 42.2944 196.483 42.381 196.471 42.4528C196.458 42.527 196.439 42.6136 196.416 42.71L208.412 38.705V38.7075ZM210.183 45.2952C209.79 46.4504 209.248 47.4845 208.56 48.3948C207.872 49.3052 207.083 50.0795 206.198 50.7127C205.312 51.346 204.34 51.8334 203.281 52.1698C202.222 52.5087 201.129 52.6745 199.996 52.6745C198.593 52.6745 197.389 52.4221 196.379 51.9175C195.37 51.4128 194.571 50.7251 193.98 49.8494C193.388 48.9761 193.015 47.9495 192.854 46.7671C192.693 45.5846 192.775 44.318 193.094 42.9648C193.413 41.5375 193.93 40.2016 194.645 38.9598C195.358 37.7179 196.221 36.6344 197.228 35.7117C198.237 34.789 199.387 34.0641 200.679 33.5348C201.97 33.0054 203.368 32.7407 204.867 32.7407C205.926 32.7407 206.89 32.8891 207.764 33.1835C208.637 33.4779 209.377 33.9157 209.978 34.4872C210.581 35.066 211.024 35.7735 211.306 36.6097C211.588 37.4409 211.657 38.4007 211.509 39.4817L196.008 44.7113C195.934 45.4733 195.971 46.1808 196.119 46.8462C196.268 47.5117 196.525 48.0955 196.894 48.6001C197.262 49.0974 197.755 49.4932 198.371 49.7752C198.987 50.0572 199.736 50.2007 200.622 50.2007C202.099 50.2007 203.432 49.7529 204.627 48.8525C205.819 47.9545 206.65 46.7671 207.118 45.2902H210.181L210.183 45.2952ZM223.232 35.3678C222.297 35.3678 221.454 35.541 220.704 35.8849C219.954 36.2287 219.284 36.6963 218.693 37.2875C218.102 37.8787 217.609 38.5541 217.216 39.3185C216.823 40.0804 216.528 40.8819 216.33 41.7181L213.931 52.2366H210.72L213.894 38.5071C214.042 37.8911 214.097 37.3988 214.059 37.0302C214.022 36.6616 213.918 36.3771 213.745 36.1817C213.572 35.9838 213.344 35.8552 213.062 35.7933C212.78 35.7315 212.454 35.7018 212.085 35.7018L213.931 33.1192C214.717 33.1192 215.338 33.2231 215.794 33.4333C216.249 33.6411 216.593 33.9306 216.828 34.3016C217.063 34.6702 217.196 35.0957 217.233 35.5756C217.27 36.0555 217.275 36.5652 217.251 37.1069C219.146 34.2027 221.728 32.7506 225.001 32.7506C225.149 32.7506 225.29 32.7506 225.426 32.7506C225.563 32.7506 225.704 32.7629 225.852 32.7877L223.232 35.3703V35.3678ZM239.787 42.9723C240.032 41.8962 240.138 40.8819 240.101 39.9394C240.064 38.9994 239.849 38.1805 239.455 37.478C239.062 36.7828 238.483 36.2287 237.721 35.8304C236.959 35.4247 235.987 35.2219 234.805 35.2219C234.238 35.2219 233.605 35.3258 232.905 35.5361C232.205 35.7463 231.532 36.0333 230.894 36.4167C230.253 36.7977 229.689 37.2479 229.197 37.7773C228.704 38.2993 228.385 38.8856 228.237 39.5238L226.908 45.3248C226.735 46.1066 226.747 46.8017 226.945 47.3979C227.143 48.0015 227.467 48.5037 227.923 48.9242C228.378 49.3423 228.924 49.6564 229.565 49.8766C230.206 50.0968 230.881 50.2081 231.594 50.2081C232.702 50.2081 233.704 50.0226 234.602 49.654C235.5 49.2903 236.294 48.7807 236.982 48.1351C237.672 47.482 238.248 46.7201 238.716 45.8419C239.183 44.9562 239.539 44.0014 239.787 42.9747V42.9723ZM242.998 42.9723C242.679 44.3502 242.167 45.6291 241.466 46.8116C240.764 47.9916 239.915 49.0133 238.921 49.8741C237.924 50.735 236.806 51.4178 235.562 51.9224C234.32 52.4271 232.996 52.6794 231.594 52.6794C230.265 52.6794 229.103 52.4271 228.106 51.9224C227.109 51.4178 226.376 50.6484 225.909 49.6169L224.763 54.5249C224.541 55.4599 224.541 56.1675 224.763 56.6474C224.984 57.1273 225.587 57.3549 226.572 57.3301L224.726 59.9128C224.086 59.9128 223.514 59.846 223.01 59.7099C222.505 59.5739 222.094 59.3339 221.773 58.99C221.454 58.6462 221.251 58.191 221.164 57.6245C221.078 57.058 221.134 56.3703 221.33 55.5589L225.278 38.5071C225.501 37.572 225.501 36.8645 225.278 36.3846C225.055 35.9046 224.454 35.6771 223.47 35.7018L225.315 33.1192C226.349 33.1192 227.153 33.3344 227.732 33.7648C228.311 34.1953 228.625 34.878 228.675 35.8131C229.634 34.7791 230.765 34.0097 232.069 33.5075C233.372 33.0029 234.651 32.7506 235.908 32.7506C237.409 32.7506 238.681 33.0153 239.727 33.5447C240.774 34.074 241.59 34.7989 242.181 35.7216C242.773 36.6443 243.134 37.7278 243.27 38.9697C243.406 40.2115 243.312 41.5474 242.993 42.9747L242.998 42.9723ZM255.493 35.3678C254.558 35.3678 253.714 35.541 252.965 35.8849C252.215 36.2287 251.545 36.6963 250.953 37.2875C250.362 37.8787 249.87 38.5541 249.477 39.3185C249.083 40.0804 248.789 40.8819 248.591 41.7181L246.191 52.2366H242.98L246.154 38.5071C246.303 37.8911 246.357 37.3988 246.32 37.0302C246.283 36.6616 246.179 36.3771 246.006 36.1817C245.833 35.9838 245.605 35.8552 245.323 35.7933C245.041 35.7315 244.715 35.7018 244.346 35.7018L246.191 33.1192C246.978 33.1192 247.599 33.2231 248.054 33.4333C248.509 33.6411 248.853 33.9306 249.088 34.3016C249.323 34.6702 249.457 35.0957 249.494 35.5756C249.531 36.0555 249.536 36.5652 249.511 37.1069C251.406 34.2027 253.989 32.7506 257.262 32.7506C257.41 32.7506 257.551 32.7506 257.687 32.7506C257.823 32.7506 257.964 32.7629 258.113 32.7877L255.493 35.3703V35.3678ZM258.731 52.3083C258.165 52.3083 257.63 52.2539 257.126 52.1426C256.621 52.0313 256.203 51.8161 255.871 51.4969C255.54 51.1778 255.317 50.735 255.206 50.1685C255.095 49.602 255.152 48.8648 255.372 47.9545L257.549 38.5071C257.697 37.8911 257.751 37.3988 257.714 37.0302C257.677 36.6616 257.573 36.3771 257.4 36.1817C257.227 35.9838 256.999 35.8552 256.717 35.7933C256.435 35.7315 256.109 35.7018 255.74 35.7018L257.586 33.1192C258.152 33.1192 258.687 33.1736 259.191 33.2849C259.696 33.3962 260.114 33.6114 260.445 33.9306C260.777 34.2497 261.004 34.6925 261.128 35.259C261.252 35.8255 261.202 36.5627 260.98 37.473L258.803 46.9204C258.654 47.5364 258.6 48.0287 258.637 48.3973C258.674 48.7659 258.778 49.0504 258.951 49.2458C259.124 49.4412 259.352 49.5723 259.634 49.6342C259.916 49.696 260.23 49.7257 260.574 49.7257L258.729 52.3083H258.731ZM264.04 27.0262C264.04 27.6175 263.812 28.0974 263.352 28.466C262.889 28.8346 262.38 29.0201 261.808 29.0201C261.237 29.0201 260.725 28.8346 260.265 28.466C259.802 28.0974 259.575 27.6175 259.575 27.0262C259.575 26.435 259.802 25.9551 260.265 25.5865C260.725 25.2179 261.237 25.0323 261.808 25.0323C262.38 25.0323 262.892 25.2179 263.352 25.5865C263.815 25.9551 264.04 26.435 264.04 27.0262ZM276.646 46.8462C276.399 47.9545 275.956 48.8772 275.318 49.6144C274.677 50.3516 273.923 50.9502 273.047 51.4054C272.174 51.8606 271.243 52.1871 270.259 52.3826C269.274 52.5805 268.302 52.6769 267.342 52.6769C266.138 52.6769 265.054 52.5483 264.094 52.2886C263.134 52.0313 262.348 51.6231 261.732 51.0714C261.116 50.5173 260.698 49.8049 260.478 48.9316C260.257 48.0584 260.28 47.0194 260.552 45.8122H263.614C263.27 47.435 263.491 48.6298 264.28 49.3917C265.066 50.1537 266.286 50.5371 267.934 50.5371C268.451 50.5371 269.005 50.4753 269.593 50.3516C270.185 50.2279 270.744 50.0374 271.273 49.7801C271.803 49.5229 272.263 49.1839 272.656 48.7659C273.049 48.3478 273.321 47.8308 273.467 47.2148C273.616 46.5741 273.596 46.0596 273.413 45.6637C273.227 45.2704 272.921 44.9439 272.49 44.6866C272.06 44.4293 271.526 44.2116 270.885 44.0409C270.244 43.8678 269.532 43.6971 268.745 43.5239C267.785 43.3013 266.9 43.0687 266.088 42.8238C265.277 42.5789 264.606 42.2524 264.077 41.8467C263.548 41.441 263.179 40.9314 262.969 40.3154C262.758 39.6994 262.766 38.9251 262.986 37.9901C263.159 37.2034 263.503 36.4885 264.02 35.8502C264.537 35.2095 265.17 34.6579 265.92 34.1903C266.669 33.7228 267.525 33.3665 268.485 33.1192C269.445 32.8743 270.479 32.7506 271.585 32.7506C272.644 32.7506 273.616 32.8545 274.501 33.0647C275.387 33.275 276.124 33.6189 276.715 34.0988C277.307 34.5787 277.725 35.2046 277.97 35.9813C278.215 36.7556 278.215 37.6981 277.97 38.8039H275.016C275.164 38.0915 275.177 37.4755 275.053 36.9585C274.929 36.4415 274.697 36.0184 274.353 35.6845C274.009 35.353 273.566 35.1056 273.025 34.9473C272.483 34.7865 271.879 34.7073 271.216 34.7073C270.281 34.7073 269.499 34.831 268.874 35.0759C268.245 35.3208 267.741 35.6103 267.36 35.9442C266.979 36.2757 266.689 36.6146 266.491 36.9585C266.296 37.3023 266.172 37.5868 266.123 37.807C265.95 38.5442 266.081 39.1305 266.511 39.5609C266.942 39.9913 267.496 40.3352 268.171 40.595C268.849 40.8522 269.574 41.0625 270.348 41.2233C271.122 41.3841 271.78 41.5375 272.322 41.6859C272.963 41.8813 273.584 42.099 274.185 42.3316C274.788 42.5666 275.305 42.8733 275.736 43.2543C276.166 43.6352 276.473 44.1152 276.659 44.694C276.844 45.2729 276.837 45.9928 276.641 46.8536L276.646 46.8462ZM293.829 38.7075C293.78 37.6066 293.391 36.7507 292.666 36.1372C291.942 35.5286 290.974 35.2219 289.77 35.2219C288.711 35.2219 287.751 35.4124 286.89 35.7933C286.029 36.1693 285.272 36.6789 284.619 37.3122C283.966 37.9529 283.419 38.6901 282.977 39.5386C282.534 40.3822 282.19 41.2678 281.943 42.1955C281.918 42.2944 281.901 42.381 281.888 42.4528C281.876 42.527 281.856 42.6136 281.834 42.71L293.829 38.705V38.7075ZM295.6 45.2952C295.207 46.4504 294.665 47.4845 293.975 48.3948C293.287 49.3052 292.498 50.0795 291.613 50.7127C290.727 51.346 289.755 51.8334 288.696 52.1698C287.637 52.5087 286.544 52.6745 285.411 52.6745C284.008 52.6745 282.804 52.4221 281.794 51.9175C280.785 51.4128 279.986 50.7251 279.395 49.8494C278.803 48.9761 278.43 47.9495 278.269 46.7671C278.108 45.5846 278.19 44.318 278.509 42.9648C278.828 41.5375 279.345 40.2016 280.06 38.9598C280.773 37.7179 281.636 36.6344 282.643 35.7117C283.652 34.789 284.802 34.0641 286.094 33.5348C287.385 33.0054 288.783 32.7407 290.282 32.7407C291.341 32.7407 292.305 32.8891 293.179 33.1835C294.052 33.4779 294.791 33.9157 295.393 34.4872C295.996 35.066 296.439 35.7735 296.721 36.6097C297.003 37.4409 297.072 38.4007 296.924 39.4817L281.423 44.7113C281.349 45.4733 281.386 46.1808 281.534 46.8462C281.683 47.5117 281.94 48.0955 282.309 48.6001C282.677 49.0974 283.17 49.4932 283.786 49.7752C284.402 50.0572 285.151 50.2007 286.037 50.2007C287.514 50.2007 288.847 49.7529 290.042 48.8525C291.234 47.9545 292.065 46.7671 292.533 45.2902H295.595L295.6 45.2952Z" fill="white"/>
<path fill-rule="evenodd" clip-rule="evenodd" d="M14.3603 52.3874C15.7382 55.4945 17.2646 58.2899 18.9517 60.8082H23.9265L24.9482 56.348C21.3884 53.8544 18.1873 50.9205 15.4488 47.6773C13.3337 45.1714 11.4957 42.4824 9.98668 39.6647C11.2409 44.3996 12.6905 48.6223 14.3628 52.3874H14.3603ZM29.3985 20.4879C35.2564 22.128 41.8441 22.9889 49.2828 23.3254C48.605 22.8009 47.8381 22.3284 46.9797 21.9103C45.0378 20.9629 42.5566 20.4879 39.5311 20.4879H29.396H29.3985ZM21.6902 20.6438C12.3417 16.0969 4.63588 8.636 0 0C4.05949 15.3375 10.1945 25.2846 19.1125 31.7981C27.1375 37.661 37.416 40.7408 50.4603 42.4651C51.5636 40.6295 52.3899 38.5392 52.9366 36.1965C53.3423 34.3461 53.4437 32.4833 53.2409 30.6107C53.038 28.738 52.4295 27.0558 51.4127 25.5666C51.1456 25.1733 50.8438 24.7997 50.5123 24.4435C40.2584 26.5388 30.2792 24.822 21.6877 20.6438H21.6902ZM18.358 35.0758C13.0072 30.8902 8.58652 25.6853 5.51655 19.9635C8.17587 30.0095 11.7258 37.7426 16.3641 43.7143C19.115 47.2543 22.2493 50.1759 25.809 52.5927L25.8585 52.38H31.14C33.7573 52.38 36.2509 52.0535 38.6208 51.3979C40.9907 50.7424 43.1231 49.738 45.0205 48.3848C46.2623 47.4967 47.3953 46.4627 48.4145 45.2852C37.1885 45.5919 26.6551 41.5596 18.3605 35.0758H18.358Z" fill="#F5BD20"/>
</svg>
